# xmcd
#
# Track frame offsets: 
#        150
#        16887
#        32202
#        56080
#        79285
#
# Disc length: 1404 seconds
#
# Revision: 0
# Processed by: cddbd v1.5.2PL0 Copyright (c) Steve Scherf et al.
# Submitted via: ExactAudioCopy v1.0b1
#
DISCID=39057a05
DTITLE=Bass Expanders - Bounce
DYEAR=1995
DGENRE=Eurodance
TTITLE0=Bounce (Airplay Edit)
TTITLE1=Bounce (Basic Edit)
TTITLE2=Bounce (Airplay Extended)
TTITLE3=Bounce (X-Out Remix)
TTITLE4=Bounce (Ziiozoo Remix)
EXTD=
EXTT0=
EXTT1=
EXTT2=
EXTT3=
EXTT4=
PLAYORDER=
